<svg xmlns="http://www.w3.org/2000/svg" viewBox="0 0 477.6 477.79"><defs><style>.cls-1{fill:#fff;}.cls-1,.cls-2{stroke:#000;stroke-miterlimit:10;stroke-width:2.4px;}.cls-2{fill:none;}</style></defs><g id="Layer_2" data-name="Layer 2"><g id="Layer_1-2" data-name="Layer 1"><circle class="cls-1" cx="238.8" cy="238.99" r="237.6"/><path class="cls-2" d="M74.5,67.39,90,83.19M35,319.59c23.1,23.1,53.8,19.5,82.6,20.2m-52.4-204c-49.1,35.1-61,106.4-59.2,106M127.6,141c-5.1,37.3,8.4,78.3,36.4,122M153.3,34.09c15.7-15.7,46.6-26.7,87.3-32.9m-52.8,411.2c-5,13.2-3.7,31.5-.8,51m6.2-388.3c28.2,3.2,79.2,7.4,119.6,30.3m-40.4,264.4c31,17.3,64.9,24.7,106,18M344.4,187c-24.2,33.4-53.4,64.5-87.2,93.6M368.1,68.69C357,48,338.5,31.19,318.2,15.29m114.6,128.1c10,.3,19.7,4.4,29,14.1M418,207c15.8,29.7,18.1,71.8,20.4,114"/><path d="M76.4,69c24.3-15.3,49.8-30.3,85.6-42.4,14.1,11.7,25.3,30.7,37.2,49.2-28.8,27.5-56.2,54.4-72.4,75.6-27.4-2.5-41-.2-74-6C53.1,121,61.2,95.49,76.4,69Zm290.4-4c27.1,24.8,53.7,49.8,72.4,78.8-5.5,26.2-10.5,55.3-18,70.4-23.4-3.5-53.6-12.5-82-20-13.8-35.7-23.1-62.5-34-92.4C326.2,86.19,346.9,72.19,366.8,65ZM39.5,368.29A237.62,237.62,0,0,1,1.7,229.09l5.9-.7c5.4,34.2,12.4,67.4,31.1,92.8-3.6,17.9-.2,32.3,5.1,45.8Zm119.7-112.5c36.5,6,71.7,12,106,18,10.6,33.3,12,66.7,15.6,100-26.3,21.8-62.5,28.7-94.4,42-37.2-24-52.3-50.8-73.6-76.8C125,310.89,138.5,282.89,159.2,255.79Zm301.3,67.8A237.62,237.62,0,0,1,368,438.29l-11.6-.5c8.4-12.7,11.4-29.7,11.8-48.8,23.2-11.1,46.4-46.3,69.6-77.2A97.33,97.33,0,0,1,460.5,323.59ZM231.8,476.29a237.72,237.72,0,0,1-99.3-25.1c19.9,7.4,36.7,14.3,54.2,8.3C192,467,204.3,472.89,231.8,476.29Z"/></g></g></svg>